<svg width="322" height="52" viewBox="0 0 322 52" fill="none" xmlns="http://www.w3.org/2000/svg">
<path d="M16.7578 9.20312C15.612 9.20312 14.5312 9.42448 13.5156 9.86719C12.5 10.3099 11.6016 10.9089 10.8203 11.6641C10.0651 12.4193 9.46615 13.3047 9.02344 14.3203C8.60677 15.3359 8.39844 16.4297 8.39844 17.6016C6.52344 17.6016 3.72396 17.6016 0 17.6016C0 15.9609 0.221354 14.3984 0.664062 12.9141C1.10677 11.4297 1.71875 10.0495 2.5 8.77344C3.98438 6.3776 5.98958 4.45052 8.51562 2.99219C11.0156 1.53385 13.763 0.804688 16.7578 0.804688C16.7578 2.13281 16.7578 3.47396 16.7578 4.82812C16.7578 6.15625 16.7578 7.47135 16.7578 8.77344C16.7578 8.85156 16.7578 8.92969 16.7578 9.00781C16.7578 9.08594 16.7578 9.15104 16.7578 9.20312ZM0 17.4844C1.84896 17.4844 4.64844 17.4844 8.39844 17.4844C8.39844 24.9844 8.39844 36.2083 8.39844 51.1562C6.52344 51.1562 3.72396 51.1562 0 51.1562C0 43.6823 0 32.4583 0 17.4844ZM8.39844 21.7812C10.2474 21.7812 13.0339 21.7812 16.7578 21.7812C16.7578 23.6562 16.7578 26.4557 16.7578 30.1797C14.9089 30.1797 12.1224 30.1797 8.39844 30.1797C8.39844 28.3047 8.39844 25.5052 8.39844 21.7812ZM16.7578 0.804688C18.6328 0.804688 21.4323 0.804688 25.1562 0.804688C25.1562 2.67969 25.1562 5.47917 25.1562 9.20312C23.2812 9.20312 20.4818 9.20312 16.7578 9.20312C16.7578 7.35417 16.7578 4.55469 16.7578 0.804688Z" fill="white"/>
<path d="M41.6016 51.1953C40.4557 50.0495 39.5052 48.7995 38.75 47.4453C37.9948 46.0651 37.4479 44.6458 37.1094 43.1875C36.8229 41.9115 36.6797 40.6484 36.6797 39.3984C36.6797 37.888 36.875 36.3776 37.2656 34.8672C38.0208 32.0807 39.4661 29.6198 41.6016 27.4844C42.9036 28.7865 44.8698 30.7656 47.5 33.4219C46.6927 34.2292 46.0807 35.1536 45.6641 36.1953C45.2734 37.2109 45.0781 38.2656 45.0781 39.3594C45.0781 40.4271 45.2734 41.4688 45.6641 42.4844C46.0807 43.526 46.6927 44.4505 47.5 45.2578C46.5104 46.2474 45.5339 47.237 44.5703 48.2266C43.5807 49.2161 42.5911 50.2057 41.6016 51.1953ZM55.3906 17.6016C55.4167 17.9401 55.4297 18.2786 55.4297 18.6172C55.4297 20.5703 55.0781 22.5104 54.375 24.4375C53.5677 26.6771 52.2786 28.6823 50.5078 30.4531C49.1797 29.125 47.2005 27.1458 44.5703 24.5156C45.4036 23.7083 46.0156 22.7839 46.4062 21.7422C46.8229 20.7266 47.0312 19.6849 47.0312 18.6172C47.0312 18.4349 47.0312 18.2656 47.0312 18.1094C47.0052 17.9531 46.9922 17.7839 46.9922 17.6016C48.3724 17.6016 49.7656 17.6016 51.1719 17.6016C52.5781 17.6016 53.9844 17.6016 55.3906 17.6016ZM51.3281 51.1953C49.1667 51.1953 45.9245 51.1953 41.6016 51.1953C42.9036 49.8672 44.8698 47.888 47.5 45.2578C48.3854 46.1432 49.1406 47.0807 49.7656 48.0703C50.4167 49.0599 50.9375 50.1016 51.3281 51.1953Z" fill="white"/>
<path d="M93.3984 34.4375C93.3984 33.2917 93.1771 32.2109 92.7344 31.1953C92.2917 30.1797 91.6927 29.2943 90.9375 28.5391C90.1823 27.7578 89.2969 27.1458 88.2812 26.7031C87.2656 26.2865 86.1719 26.0781 85 26.0781C85 24.2031 85 21.4036 85 17.6797C87.3177 17.6797 89.4922 18.1224 91.5234 19.0078C93.5807 19.8672 95.3646 21.0651 96.875 22.6016C98.3854 24.112 99.5833 25.8828 100.469 27.9141C101.354 29.9453 101.797 32.1198 101.797 34.4375C100.391 34.4375 98.9844 34.4375 97.5781 34.4375C96.1979 34.4375 94.8047 34.4375 93.3984 34.4375ZM85 26.0781C83.8542 26.0781 82.7734 26.2865 81.7578 26.7031C80.7422 27.1458 79.8438 27.7578 79.0625 28.5391C78.3073 29.2943 77.7083 30.1797 77.2656 31.1953C76.849 32.2109 76.6406 33.2917 76.6406 34.4375C74.7656 34.4375 71.9661 34.4375 68.2422 34.4375C68.2422 31.4427 68.9714 28.6953 70.4297 26.1953C71.862 23.6693 73.776 21.6641 76.1719 20.1797C77.4479 19.3984 78.8411 18.7865 80.3516 18.3438C81.8359 17.901 83.3854 17.6797 85 17.6797C85 19.0859 85 20.4792 85 21.8594C85 23.2656 85 24.6719 85 26.0781ZM93.3984 34.4375C95.2734 34.4375 98.0729 34.4375 101.797 34.4375C101.797 38.1615 101.797 43.7474 101.797 51.1953C99.9219 51.1953 97.1224 51.1953 93.3984 51.1953C93.3984 47.4714 93.3984 41.8854 93.3984 34.4375ZM68.2422 34.4375C70.0911 34.4375 72.8906 34.4375 76.6406 34.4375C76.6406 38.1615 76.6406 43.7474 76.6406 51.1953C74.7656 51.1953 71.9661 51.1953 68.2422 51.1953C68.2422 47.4714 68.2422 41.8854 68.2422 34.4375Z" fill="white"/>
<path d="M139.727 42.7578C140.872 42.7578 141.953 42.5365 142.969 42.0938C143.984 41.651 144.87 41.0521 145.625 40.2969C146.406 39.5417 147.018 38.6562 147.461 37.6406C147.878 36.625 148.086 35.5312 148.086 34.3594C149.961 34.3594 152.76 34.3594 156.484 34.3594C156.484 36.6771 156.042 38.8516 155.156 40.8828C154.297 42.9401 153.099 44.724 151.562 46.2344C150.052 47.7448 148.281 48.9427 146.25 49.8281C144.219 50.7135 142.044 51.1562 139.727 51.1562C139.727 49.75 139.727 48.3438 139.727 46.9375C139.727 45.5573 139.727 44.1641 139.727 42.7578ZM148.086 34.3594C148.086 33.2135 147.878 32.1328 147.461 31.1172C147.018 30.1016 146.406 29.2031 145.625 28.4219C144.87 27.6667 143.984 27.0677 142.969 26.625C141.953 26.2083 140.872 26 139.727 26C139.727 24.125 139.727 21.3255 139.727 17.6016C141.341 17.6016 142.891 17.8229 144.375 18.2656C145.885 18.7083 147.279 19.3203 148.555 20.1016C150.924 21.5859 152.839 23.5781 154.297 26.0781C155.755 28.6042 156.484 31.3646 156.484 34.3594C155.078 34.3594 153.685 34.3594 152.305 34.3594C150.898 34.3594 149.492 34.3594 148.086 34.3594ZM139.727 51.1562C137.852 51.1562 135.052 51.1562 131.328 51.1562C131.328 49.2812 131.328 46.4818 131.328 42.7578C133.203 42.7578 136.003 42.7578 139.727 42.7578C139.727 44.6328 139.727 47.4323 139.727 51.1562ZM131.328 26C130.182 26 129.102 26.2083 128.086 26.625C127.07 27.0677 126.172 27.6667 125.391 28.4219C124.635 29.2031 124.036 30.1016 123.594 31.1172C123.177 32.1328 122.969 33.2135 122.969 34.3594C121.094 34.3594 118.294 34.3594 114.57 34.3594C114.57 32.0417 115.013 29.8672 115.898 27.8359C116.758 25.8047 117.956 24.0339 119.492 22.5234C121.003 20.987 122.773 19.7891 124.805 18.9297C126.836 18.0443 129.01 17.6016 131.328 17.6016C131.328 18.9818 131.328 20.375 131.328 21.7812C131.328 23.1875 131.328 24.5938 131.328 26ZM122.969 34.3594C122.969 35.5312 123.177 36.625 123.594 37.6406C124.036 38.6562 124.635 39.5417 125.391 40.2969C126.172 41.0521 127.07 41.651 128.086 42.0938C129.102 42.5365 130.182 42.7578 131.328 42.7578C131.328 44.6328 131.328 47.4323 131.328 51.1562C129.714 51.1562 128.164 50.9349 126.68 50.4922C125.169 50.0495 123.776 49.4245 122.5 48.6172C120.104 47.1328 118.19 45.1406 116.758 42.6406C115.299 40.1406 114.57 37.3802 114.57 34.3594C115.977 34.3594 117.37 34.3594 118.75 34.3594C120.156 34.3594 121.562 34.3594 122.969 34.3594ZM131.328 17.6016C133.177 17.6016 135.977 17.6016 139.727 17.6016C139.727 19.4505 139.727 22.25 139.727 26C137.852 26 135.052 26 131.328 26C131.328 24.125 131.328 21.3255 131.328 17.6016Z" fill="white"/>
<path d="M177.695 34.4375C177.695 35.5833 177.904 36.6771 178.32 37.7188C178.763 38.7344 179.362 39.6198 180.117 40.375C180.898 41.1302 181.797 41.7292 182.812 42.1719C183.828 42.6146 184.909 42.8359 186.055 42.8359C186.055 44.6849 186.055 47.4714 186.055 51.1953C183.737 51.1953 181.562 50.7656 179.531 49.9062C177.5 49.0208 175.729 47.8229 174.219 46.3125C172.682 44.776 171.484 42.9922 170.625 40.9609C169.74 38.9297 169.297 36.7552 169.297 34.4375C170.703 34.4375 172.096 34.4375 173.477 34.4375C174.883 34.4375 176.289 34.4375 177.695 34.4375ZM190.391 42.8359C190.391 44.6849 190.391 47.4714 190.391 51.1953C189.427 51.1953 187.982 51.1953 186.055 51.1953C186.055 49.3464 186.055 46.5599 186.055 42.8359C187.018 42.8359 188.464 42.8359 190.391 42.8359ZM169.297 17.6406C171.146 17.6406 173.945 17.6406 177.695 17.6406C177.695 21.3646 177.695 26.9635 177.695 34.4375C175.82 34.4375 173.021 34.4375 169.297 34.4375C169.297 30.7135 169.297 25.1146 169.297 17.6406Z" fill="white"/>
<path d="M206.797 51.1953C205.651 50.0495 204.701 48.7995 203.945 47.4453C203.19 46.0651 202.643 44.6458 202.305 43.1875C202.018 41.9115 201.875 40.6484 201.875 39.3984C201.875 37.888 202.07 36.3776 202.461 34.8672C203.216 32.0807 204.661 29.6198 206.797 27.4844C208.099 28.7865 210.065 30.7656 212.695 33.4219C211.888 34.2292 211.276 35.1536 210.859 36.1953C210.469 37.2109 210.273 38.2656 210.273 39.3594C210.273 40.4271 210.469 41.4688 210.859 42.4844C211.276 43.526 211.888 44.4505 212.695 45.2578C211.706 46.2474 210.729 47.237 209.766 48.2266C208.776 49.2161 207.786 50.2057 206.797 51.1953ZM220.586 17.6016C220.612 17.9401 220.625 18.2786 220.625 18.6172C220.625 20.5703 220.273 22.5104 219.57 24.4375C218.763 26.6771 217.474 28.6823 215.703 30.4531C214.375 29.125 212.396 27.1458 209.766 24.5156C210.599 23.7083 211.211 22.7839 211.602 21.7422C212.018 20.7266 212.227 19.6849 212.227 18.6172C212.227 18.4349 212.227 18.2656 212.227 18.1094C212.201 17.9531 212.188 17.7839 212.188 17.6016C213.568 17.6016 214.961 17.6016 216.367 17.6016C217.773 17.6016 219.18 17.6016 220.586 17.6016ZM216.523 51.1953C214.362 51.1953 211.12 51.1953 206.797 51.1953C208.099 49.8672 210.065 47.888 212.695 45.2578C213.581 46.1432 214.336 47.0807 214.961 48.0703C215.612 49.0599 216.133 50.1016 216.523 51.1953Z" fill="white"/>
<path d="M258.594 34.4375C258.594 33.2917 258.372 32.2109 257.93 31.1953C257.487 30.1797 256.888 29.2943 256.133 28.5391C255.378 27.7578 254.492 27.1458 253.477 26.7031C252.461 26.2865 251.367 26.0781 250.195 26.0781C250.195 24.2031 250.195 21.4036 250.195 17.6797C252.513 17.6797 254.688 18.1224 256.719 19.0078C258.776 19.8672 260.56 21.0651 262.07 22.6016C263.581 24.112 264.779 25.8828 265.664 27.9141C266.549 29.9453 266.992 32.1198 266.992 34.4375C265.586 34.4375 264.18 34.4375 262.773 34.4375C261.393 34.4375 260 34.4375 258.594 34.4375ZM250.195 26.0781C249.049 26.0781 247.969 26.2865 246.953 26.7031C245.938 27.1458 245.039 27.7578 244.258 28.5391C243.503 29.2943 242.904 30.1797 242.461 31.1953C242.044 32.2109 241.836 33.2917 241.836 34.4375C239.961 34.4375 237.161 34.4375 233.438 34.4375C233.438 31.4427 234.167 28.6953 235.625 26.1953C237.057 23.6693 238.971 21.6641 241.367 20.1797C242.643 19.3984 244.036 18.7865 245.547 18.3438C247.031 17.901 248.581 17.6797 250.195 17.6797C250.195 19.0859 250.195 20.4792 250.195 21.8594C250.195 23.2656 250.195 24.6719 250.195 26.0781ZM258.594 34.4375C260.469 34.4375 263.268 34.4375 266.992 34.4375C266.992 38.1615 266.992 43.7474 266.992 51.1953C265.117 51.1953 262.318 51.1953 258.594 51.1953C258.594 47.4714 258.594 41.8854 258.594 34.4375ZM233.438 34.4375C235.286 34.4375 238.086 34.4375 241.836 34.4375C241.836 38.1615 241.836 43.7474 241.836 51.1953C239.961 51.1953 237.161 51.1953 233.438 51.1953C233.438 47.4714 233.438 41.8854 233.438 34.4375Z" fill="white"/>
<path d="M304.922 42.7578C306.068 42.7578 307.148 42.5365 308.164 42.0938C309.18 41.651 310.065 41.0521 310.82 40.2969C311.602 39.5417 312.214 38.6562 312.656 37.6406C313.073 36.625 313.281 35.5312 313.281 34.3594C315.156 34.3594 317.956 34.3594 321.68 34.3594C321.68 36.6771 321.237 38.8516 320.352 40.8828C319.492 42.9401 318.294 44.724 316.758 46.2344C315.247 47.7448 313.477 48.9427 311.445 49.8281C309.414 50.7135 307.24 51.1562 304.922 51.1562C304.922 49.75 304.922 48.3438 304.922 46.9375C304.922 45.5573 304.922 44.1641 304.922 42.7578ZM313.281 34.3594C313.281 33.2135 313.073 32.1328 312.656 31.1172C312.214 30.1016 311.602 29.2031 310.82 28.4219C310.065 27.6667 309.18 27.0677 308.164 26.625C307.148 26.2083 306.068 26 304.922 26C304.922 24.125 304.922 21.3255 304.922 17.6016C306.536 17.6016 308.086 17.8229 309.57 18.2656C311.081 18.7083 312.474 19.3203 313.75 20.1016C316.12 21.5859 318.034 23.5781 319.492 26.0781C320.951 28.6042 321.68 31.3646 321.68 34.3594C320.273 34.3594 318.88 34.3594 317.5 34.3594C316.094 34.3594 314.688 34.3594 313.281 34.3594ZM304.922 51.1562C303.047 51.1562 300.247 51.1562 296.523 51.1562C296.523 49.2812 296.523 46.4818 296.523 42.7578C298.398 42.7578 301.198 42.7578 304.922 42.7578C304.922 44.6328 304.922 47.4323 304.922 51.1562ZM296.523 26C295.378 26 294.297 26.2083 293.281 26.625C292.266 27.0677 291.367 27.6667 290.586 28.4219C289.831 29.2031 289.232 30.1016 288.789 31.1172C288.372 32.1328 288.164 33.2135 288.164 34.3594C286.289 34.3594 283.49 34.3594 279.766 34.3594C279.766 32.0417 280.208 29.8672 281.094 27.8359C281.953 25.8047 283.151 24.0339 284.688 22.5234C286.198 20.987 287.969 19.7891 290 18.9297C292.031 18.0443 294.206 17.6016 296.523 17.6016C296.523 18.9818 296.523 20.375 296.523 21.7812C296.523 23.1875 296.523 24.5938 296.523 26ZM288.164 34.3594C288.164 35.5312 288.372 36.625 288.789 37.6406C289.232 38.6562 289.831 39.5417 290.586 40.2969C291.367 41.0521 292.266 41.651 293.281 42.0938C294.297 42.5365 295.378 42.7578 296.523 42.7578C296.523 44.6328 296.523 47.4323 296.523 51.1562C294.909 51.1562 293.359 50.9349 291.875 50.4922C290.365 50.0495 288.971 49.4245 287.695 48.6172C285.299 47.1328 283.385 45.1406 281.953 42.6406C280.495 40.1406 279.766 37.3802 279.766 34.3594C281.172 34.3594 282.565 34.3594 283.945 34.3594C285.352 34.3594 286.758 34.3594 288.164 34.3594ZM296.523 17.6016C298.372 17.6016 301.172 17.6016 304.922 17.6016C304.922 19.4505 304.922 22.25 304.922 26C303.047 26 300.247 26 296.523 26C296.523 24.125 296.523 21.3255 296.523 17.6016Z" fill="white"/>
</svg>
