<svg width="10" height="10" viewBox="0 0 10 10" fill="none" xmlns="http://www.w3.org/2000/svg">
<path d="M5.94002 5.00004L8.80669 2.14004C8.93222 2.01451 9.00275 1.84424 9.00275 1.66671C9.00275 1.48917 8.93222 1.31891 8.80669 1.19338C8.68115 1.06784 8.51089 0.997314 8.33335 0.997314C8.15582 0.997314 7.98556 1.06784 7.86002 1.19338L5.00002 4.06004L2.14002 1.19338C2.01448 1.06784 1.84422 0.997314 1.66669 0.997314C1.48915 0.997314 1.31889 1.06784 1.19335 1.19338C1.06782 1.31891 0.997293 1.48917 0.997293 1.66671C0.997293 1.84424 1.06782 2.01451 1.19335 2.14004L4.06002 5.00004L1.19335 7.86004C1.13087 7.92202 1.08127 7.99575 1.04743 8.07699C1.01358 8.15823 0.996155 8.24537 0.996155 8.33338C0.996155 8.42138 1.01358 8.50852 1.04743 8.58976C1.08127 8.671 1.13087 8.74473 1.19335 8.80671C1.25533 8.86919 1.32906 8.91879 1.4103 8.95264C1.49154 8.98648 1.57868 9.00391 1.66669 9.00391C1.75469 9.00391 1.84183 8.98648 1.92307 8.95264C2.00431 8.91879 2.07805 8.86919 2.14002 8.80671L5.00002 5.94004L7.86002 8.80671C7.922 8.86919 7.99573 8.91879 8.07697 8.95264C8.15821 8.98648 8.24535 9.00391 8.33335 9.00391C8.42136 9.00391 8.5085 8.98648 8.58974 8.95264C8.67098 8.91879 8.74471 8.86919 8.80669 8.80671C8.86917 8.74473 8.91877 8.671 8.95262 8.58976C8.98646 8.50852 9.00389 8.42138 9.00389 8.33338C9.00389 8.24537 8.98646 8.15823 8.95262 8.07699C8.91877 7.99575 8.86917 7.92202 8.80669 7.86004L5.94002 5.00004Z" fill="#858585"/>
</svg>
