<svg width="727" height="344" viewBox="0 0 727 344" fill="none" xmlns="http://www.w3.org/2000/svg">
<path d="M391.341 171.641C414.258 171.641 435.872 167.117 456.185 158.069C476.497 149.022 494.205 136.781 509.309 121.346C524.934 105.912 537.174 87.8164 546.028 67.0598C554.361 46.3032 558.528 23.9499 558.528 0C596.028 0 652.018 0 726.497 0C726.497 47.3676 717.643 91.808 699.934 133.321C682.747 175.367 658.789 211.824 628.059 242.692C597.851 273.561 562.434 298.043 521.809 316.139C481.184 334.234 437.695 343.282 391.341 343.282C391.341 314.542 391.341 285.802 391.341 257.062C391.341 228.855 391.341 200.381 391.341 171.641ZM391.341 343.282C353.841 343.282 297.852 343.282 223.372 343.282C223.372 304.962 223.372 247.749 223.372 171.641C260.872 171.641 316.862 171.641 391.341 171.641C391.341 209.961 391.341 267.175 391.341 343.282ZM43.216 68.4648H69.216C78.0702 89.2214 89.5181 105.912 104.622 121.346C120.247 136.781 138.216 149.022 158.529 158.069C178.841 167.117 200.456 171.641 223.372 171.641C223.372 209.961 223.372 267.175 223.372 343.282C191.081 343.282 160.091 338.758 130.404 329.711C100.195 320.663 72.3306 307.889 46.8097 291.391C-1.10694 261.054 -2.31953 259.042 1.216 259.042C1.216 259.042 1.21599 254.87 1.21599 193.132L1.21602 68.4648C1.21602 68.4648 15.091 68.4648 43.216 68.4648Z" fill="white" fill-opacity="0.1"/>
</svg>
