<svg width="20" height="18" viewBox="0 0 20 18" fill="none" xmlns="http://www.w3.org/2000/svg">
<path d="M7.75687 17.8089C7.16647 17.8089 6.60025 17.5743 6.18277 17.1569C5.7653 16.7394 5.53076 16.1732 5.53076 15.5828C5.53076 14.9924 5.7653 14.4262 6.18277 14.0087C6.60025 13.5912 7.16647 13.3567 7.75687 13.3567C8.34727 13.3567 8.91349 13.5912 9.33097 14.0087C9.74845 14.4262 9.98298 14.9924 9.98298 15.5828C9.98298 16.1732 9.74845 16.7394 9.33097 17.1569C8.91349 17.5743 8.34727 17.8089 7.75687 17.8089ZM15.5483 17.8089C14.9579 17.8089 14.3916 17.5743 13.9742 17.1569C13.5567 16.7394 13.3221 16.1732 13.3221 15.5828C13.3221 14.9924 13.5567 14.4262 13.9742 14.0087C14.3916 13.5912 14.9579 13.3567 15.5483 13.3567C16.1387 13.3567 16.7049 13.5912 17.1224 14.0087C17.5398 14.4262 17.7744 14.9924 17.7744 15.5828C17.7744 16.1732 17.5398 16.7394 17.1224 17.1569C16.7049 17.5743 16.1387 17.8089 15.5483 17.8089ZM1.03624 2.14041C0.75838 2.13144 0.494897 2.01476 0.301511 1.81504C0.108126 1.61532 0 1.34821 0 1.0702C0 0.792197 0.108126 0.525089 0.301511 0.325365C0.494897 0.125642 0.75838 0.00896211 1.03624 0H2.31737C3.32134 0 4.18953 0.696773 4.40769 1.67626L5.80235 7.95612C6.0205 8.93561 6.88869 9.63238 7.89266 9.63238H16.2539L17.859 3.21005H7.45746C7.18221 3.19749 6.9224 3.07931 6.73206 2.88009C6.54172 2.68087 6.43551 2.41594 6.43551 2.14041C6.43551 1.86487 6.54172 1.59994 6.73206 1.40072C6.9224 1.2015 7.18221 1.08332 7.45746 1.07076H17.859C18.1843 1.07066 18.5055 1.14475 18.7979 1.2874C19.0904 1.43004 19.3465 1.63749 19.5467 1.89396C19.7469 2.15043 19.8861 2.44918 19.9535 2.7675C20.021 3.08581 20.0149 3.41532 19.9359 3.73096L18.3309 10.1511C18.2152 10.6143 17.9479 11.0256 17.5716 11.3194C17.1952 11.6133 16.7314 11.7729 16.2539 11.7728H7.89266C6.91851 11.7729 5.97345 11.4408 5.21355 10.8313C4.45366 10.2217 3.92438 9.37124 3.71314 8.42026L2.31737 2.14041H1.03624Z" fill="white"/>
</svg>
