<svg width="1032" height="379" viewBox="0 0 1032 379" fill="none" xmlns="http://www.w3.org/2000/svg">
<path d="M830.248 379C830.248 353.086 824.956 328.643 814.373 305.674C803.789 282.704 789.47 262.385 771.416 244.716C753.362 227.636 732.195 214.089 707.915 204.077C683.635 194.654 657.487 189.942 629.472 189.942C629.472 147.536 629.472 84.2223 629.472 9.4207e-05C668.693 9.58289e-05 706.047 5.00631 741.533 15.0187C777.019 25.0312 810.015 38.8719 840.52 56.5409C897.796 90.112 943.866 135.462 978.729 192.592C1013.59 249.133 1031.02 311.269 1031.02 379C999.274 379 967.212 379 934.839 379C903.088 379 871.648 379 840.52 379C838.653 379 836.785 379 834.917 379C833.05 379 831.493 379 830.248 379ZM632.273 9.43229e-05C632.273 41.8167 632.273 105.131 632.273 189.942C452.975 189.942 357.375 189.942 0.0244141 189.942C0.024416 147.536 0.0244189 84.2223 0.0244228 6.10352e-05C178.7 6.84238e-05 274.3 7.95197e-05 632.273 9.43229e-05ZM529.551 189.942C529.551 231.758 529.551 294.778 529.551 379C484.726 379 417.801 379 328.774 379C328.774 337.183 328.774 274.164 328.774 189.942C373.599 189.942 440.524 189.942 529.551 189.942Z" fill="white" fill-opacity="0.1"/>
</svg>
