<svg width="0" height="0" style="position: absolute" xmlns="http://www.w3.org/2000/svg" >
  <symbol id="cart" width="20" height="18" viewBox="0 0 20 18" xmlns="http://www.w3.org/2000/svg">
    <path d="M7.75687 17.8089C7.16647 17.8089 6.60025 17.5743 6.18277 17.1569C5.7653 16.7394 5.53076 16.1732 5.53076 15.5828C5.53076 14.9924 5.7653 14.4262 6.18277 14.0087C6.60025 13.5912 7.16647 13.3567 7.75687 13.3567C8.34727 13.3567 8.91349 13.5912 9.33097 14.0087C9.74845 14.4262 9.98298 14.9924 9.98298 15.5828C9.98298 16.1732 9.74845 16.7394 9.33097 17.1569C8.91349 17.5743 8.34727 17.8089 7.75687 17.8089ZM15.5483 17.8089C14.9579 17.8089 14.3916 17.5743 13.9742 17.1569C13.5567 16.7394 13.3221 16.1732 13.3221 15.5828C13.3221 14.9924 13.5567 14.4262 13.9742 14.0087C14.3916 13.5912 14.9579 13.3567 15.5483 13.3567C16.1387 13.3567 16.7049 13.5912 17.1224 14.0087C17.5398 14.4262 17.7744 14.9924 17.7744 15.5828C17.7744 16.1732 17.5398 16.7394 17.1224 17.1569C16.7049 17.5743 16.1387 17.8089 15.5483 17.8089ZM1.03624 2.14041C0.75838 2.13144 0.494897 2.01476 0.301511 1.81504C0.108126 1.61532 0 1.34821 0 1.0702C0 0.792197 0.108126 0.525089 0.301511 0.325365C0.494897 0.125642 0.75838 0.00896211 1.03624 0H2.31737C3.32134 0 4.18953 0.696773 4.40769 1.67626L5.80235 7.95612C6.0205 8.93561 6.88869 9.63238 7.89266 9.63238H16.2539L17.859 3.21005H7.45746C7.18221 3.19749 6.9224 3.07931 6.73206 2.88009C6.54172 2.68087 6.43551 2.41594 6.43551 2.14041C6.43551 1.86487 6.54172 1.59994 6.73206 1.40072C6.9224 1.2015 7.18221 1.08332 7.45746 1.07076H17.859C18.1843 1.07066 18.5055 1.14475 18.7979 1.2874C19.0904 1.43004 19.3465 1.63749 19.5467 1.89396C19.7469 2.15043 19.8861 2.44918 19.9535 2.7675C20.021 3.08581 20.0149 3.41532 19.9359 3.73096L18.3309 10.1511C18.2152 10.6143 17.9479 11.0256 17.5716 11.3194C17.1952 11.6133 16.7314 11.7729 16.2539 11.7728H7.89266C6.91851 11.7729 5.97345 11.4408 5.21355 10.8313C4.45366 10.2217 3.92438 9.37124 3.71314 8.42026L2.31737 2.14041H1.03624Z" fill="white"/>
  </symbol>
  <symbol id="chevron-down" width="16" height="9" viewBox="0 0 16 9" fill="none" xmlns="http://www.w3.org/2000/svg">
    <path d="M7.98905 7.99954C7.75539 8 7.52896 7.91862 7.34904 7.76954L1.34905 2.76954C1.14483 2.59981 1.0164 2.35589 0.992024 2.09147C0.967645 1.82704 1.04931 1.56376 1.21905 1.35954C1.38878 1.15533 1.6327 1.0269 1.89712 1.00252C2.16155 0.978143 2.42483 1.0598 2.62905 1.22954L7.98905 5.70954L13.349 1.38954C13.4513 1.30648 13.569 1.24445 13.6954 1.20701C13.8217 1.16958 13.9542 1.15749 14.0852 1.17143C14.2163 1.18537 14.3432 1.22506 14.4589 1.28824C14.5745 1.35141 14.6765 1.43682 14.759 1.53954C14.8506 1.64236 14.92 1.76299 14.9628 1.89386C15.0056 2.02474 15.0209 2.16304 15.0077 2.3001C14.9946 2.43717 14.9533 2.57004 14.8864 2.69039C14.8195 2.81075 14.7285 2.916 14.619 2.99954L8.61905 7.82954C8.43396 7.95506 8.21215 8.01491 7.98905 7.99954Z" fill="white"/>
  </symbol>
  <symbol id="chevron-right" width="7" height="14" viewBox="0 0 7 14" fill="none" xmlns="http://www.w3.org/2000/svg" >
    <path d="M1.16669 13.4168C0.952512 13.4172 0.744945 13.3426 0.580026 13.2059C0.487206 13.129 0.410479 13.0345 0.35424 12.9278C0.298001 12.8212 0.263354 12.7045 0.252285 12.5844C0.241215 12.4644 0.25394 12.3433 0.289731 12.2282C0.325522 12.113 0.383674 12.0061 0.460859 11.9134L4.56753 7.00011L0.607527 2.07761C0.531383 1.98384 0.47452 1.87596 0.440208 1.76015C0.405896 1.64433 0.39481 1.52288 0.407587 1.40277C0.420365 1.28266 0.456754 1.16627 0.514663 1.06026C0.572572 0.954265 0.65086 0.860754 0.745026 0.785108C0.83987 0.701658 0.950939 0.638713 1.07126 0.600223C1.19159 0.561733 1.31857 0.54853 1.44424 0.561441C1.5699 0.574352 1.69155 0.613099 1.80153 0.675251C1.91152 0.737402 2.00746 0.821617 2.08336 0.922608L6.51086 6.42261C6.64568 6.58663 6.71939 6.79237 6.71939 7.00469C6.71939 7.21701 6.64568 7.42275 6.51086 7.58677L1.92753 13.0868C1.83557 13.1977 1.71875 13.2854 1.58656 13.3427C1.45437 13.4001 1.31052 13.4254 1.16669 13.4168Z" fill="#858585"/>
  </symbol>
  <symbol id="cross" viewBox="0 0 9 9" fill="none" xmlns="http://www.w3.org/2000/svg" >
    <path d="M5.94002 5.00004L8.80669 2.14004C8.93222 2.01451 9.00275 1.84424 9.00275 1.66671C9.00275 1.48917 8.93222 1.31891 8.80669 1.19338C8.68115 1.06784 8.51089 0.997314 8.33335 0.997314C8.15582 0.997314 7.98556 1.06784 7.86002 1.19338L5.00002 4.06004L2.14002 1.19338C2.01448 1.06784 1.84422 0.997314 1.66669 0.997314C1.48915 0.997314 1.31889 1.06784 1.19335 1.19338C1.06782 1.31891 0.997293 1.48917 0.997293 1.66671C0.997293 1.84424 1.06782 2.01451 1.19335 2.14004L4.06002 5.00004L1.19335 7.86004C1.13087 7.92202 1.08127 7.99575 1.04743 8.07699C1.01358 8.15823 0.996155 8.24537 0.996155 8.33338C0.996155 8.42138 1.01358 8.50852 1.04743 8.58976C1.08127 8.671 1.13087 8.74473 1.19335 8.80671C1.25533 8.86919 1.32906 8.91879 1.4103 8.95264C1.49154 8.98648 1.57868 9.00391 1.66669 9.00391C1.75469 9.00391 1.84183 8.98648 1.92307 8.95264C2.00431 8.91879 2.07805 8.86919 2.14002 8.80671L5.00002 5.94004L7.86002 8.80671C7.922 8.86919 7.99573 8.91879 8.07697 8.95264C8.15821 8.98648 8.24535 9.00391 8.33335 9.00391C8.42136 9.00391 8.5085 8.98648 8.58974 8.95264C8.67098 8.91879 8.74471 8.86919 8.80669 8.80671C8.86917 8.74473 8.91877 8.671 8.95262 8.58976C8.98646 8.50852 9.00389 8.42138 9.00389 8.33338C9.00389 8.24537 8.98646 8.15823 8.95262 8.07699C8.91877 7.99575 8.86917 7.92202 8.80669 7.86004L5.94002 5.00004Z" fill="#858585"/>
  </symbol>
  <symbol id="facebook" width="20" height="20" viewBox="0 0 20 20" fill="none" xmlns="http://www.w3.org/2000/svg" >
    <path d="M8.69501 6.93712V8.31412H7.68701V9.99712H8.69501V15.0001H10.767V9.99712H12.157C12.157 9.99712 12.288 9.19012 12.351 8.30712H10.775V7.15712C10.775 6.98412 11.001 6.75312 11.225 6.75312H12.353V5.00012H10.818C8.64401 5.00012 8.69501 6.68512 8.69501 6.93712Z" fill="white"/>
    <path d="M4 2C3.46957 2 2.96086 2.21071 2.58579 2.58579C2.21071 2.96086 2 3.46957 2 4V16C2 16.5304 2.21071 17.0391 2.58579 17.4142C2.96086 17.7893 3.46957 18 4 18H16C16.5304 18 17.0391 17.7893 17.4142 17.4142C17.7893 17.0391 18 16.5304 18 16V4C18 3.46957 17.7893 2.96086 17.4142 2.58579C17.0391 2.21071 16.5304 2 16 2H4ZM4 0H16C17.0609 0 18.0783 0.421427 18.8284 1.17157C19.5786 1.92172 20 2.93913 20 4V16C20 17.0609 19.5786 18.0783 18.8284 18.8284C18.0783 19.5786 17.0609 20 16 20H4C2.93913 20 1.92172 19.5786 1.17157 18.8284C0.421427 18.0783 0 17.0609 0 16V4C0 2.93913 0.421427 1.92172 1.17157 1.17157C1.92172 0.421427 2.93913 0 4 0Z" fill="white"/>
  </symbol>
  <symbol id="finolino" width="322" height="52" viewBox="0 0 322 52" fill="none" xmlns="http://www.w3.org/2000/svg" >
    <path d="M16.7578 9.20312C15.612 9.20312 14.5312 9.42448 13.5156 9.86719C12.5 10.3099 11.6016 10.9089 10.8203 11.6641C10.0651 12.4193 9.46615 13.3047 9.02344 14.3203C8.60677 15.3359 8.39844 16.4297 8.39844 17.6016C6.52344 17.6016 3.72396 17.6016 0 17.6016C0 15.9609 0.221354 14.3984 0.664062 12.9141C1.10677 11.4297 1.71875 10.0495 2.5 8.77344C3.98438 6.3776 5.98958 4.45052 8.51562 2.99219C11.0156 1.53385 13.763 0.804688 16.7578 0.804688C16.7578 2.13281 16.7578 3.47396 16.7578 4.82812C16.7578 6.15625 16.7578 7.47135 16.7578 8.77344C16.7578 8.85156 16.7578 8.92969 16.7578 9.00781C16.7578 9.08594 16.7578 9.15104 16.7578 9.20312ZM0 17.4844C1.84896 17.4844 4.64844 17.4844 8.39844 17.4844C8.39844 24.9844 8.39844 36.2083 8.39844 51.1562C6.52344 51.1562 3.72396 51.1562 0 51.1562C0 43.6823 0 32.4583 0 17.4844ZM8.39844 21.7812C10.2474 21.7812 13.0339 21.7812 16.7578 21.7812C16.7578 23.6562 16.7578 26.4557 16.7578 30.1797C14.9089 30.1797 12.1224 30.1797 8.39844 30.1797C8.39844 28.3047 8.39844 25.5052 8.39844 21.7812ZM16.7578 0.804688C18.6328 0.804688 21.4323 0.804688 25.1562 0.804688C25.1562 2.67969 25.1562 5.47917 25.1562 9.20312C23.2812 9.20312 20.4818 9.20312 16.7578 9.20312C16.7578 7.35417 16.7578 4.55469 16.7578 0.804688Z" fill="white"/>
    <path d="M41.6016 51.1953C40.4557 50.0495 39.5052 48.7995 38.75 47.4453C37.9948 46.0651 37.4479 44.6458 37.1094 43.1875C36.8229 41.9115 36.6797 40.6484 36.6797 39.3984C36.6797 37.888 36.875 36.3776 37.2656 34.8672C38.0208 32.0807 39.4661 29.6198 41.6016 27.4844C42.9036 28.7865 44.8698 30.7656 47.5 33.4219C46.6927 34.2292 46.0807 35.1536 45.6641 36.1953C45.2734 37.2109 45.0781 38.2656 45.0781 39.3594C45.0781 40.4271 45.2734 41.4688 45.6641 42.4844C46.0807 43.526 46.6927 44.4505 47.5 45.2578C46.5104 46.2474 45.5339 47.237 44.5703 48.2266C43.5807 49.2161 42.5911 50.2057 41.6016 51.1953ZM55.3906 17.6016C55.4167 17.9401 55.4297 18.2786 55.4297 18.6172C55.4297 20.5703 55.0781 22.5104 54.375 24.4375C53.5677 26.6771 52.2786 28.6823 50.5078 30.4531C49.1797 29.125 47.2005 27.1458 44.5703 24.5156C45.4036 23.7083 46.0156 22.7839 46.4062 21.7422C46.8229 20.7266 47.0312 19.6849 47.0312 18.6172C47.0312 18.4349 47.0312 18.2656 47.0312 18.1094C47.0052 17.9531 46.9922 17.7839 46.9922 17.6016C48.3724 17.6016 49.7656 17.6016 51.1719 17.6016C52.5781 17.6016 53.9844 17.6016 55.3906 17.6016ZM51.3281 51.1953C49.1667 51.1953 45.9245 51.1953 41.6016 51.1953C42.9036 49.8672 44.8698 47.888 47.5 45.2578C48.3854 46.1432 49.1406 47.0807 49.7656 48.0703C50.4167 49.0599 50.9375 50.1016 51.3281 51.1953Z" fill="white"/>
    <path d="M93.3984 34.4375C93.3984 33.2917 93.1771 32.2109 92.7344 31.1953C92.2917 30.1797 91.6927 29.2943 90.9375 28.5391C90.1823 27.7578 89.2969 27.1458 88.2812 26.7031C87.2656 26.2865 86.1719 26.0781 85 26.0781C85 24.2031 85 21.4036 85 17.6797C87.3177 17.6797 89.4922 18.1224 91.5234 19.0078C93.5807 19.8672 95.3646 21.0651 96.875 22.6016C98.3854 24.112 99.5833 25.8828 100.469 27.9141C101.354 29.9453 101.797 32.1198 101.797 34.4375C100.391 34.4375 98.9844 34.4375 97.5781 34.4375C96.1979 34.4375 94.8047 34.4375 93.3984 34.4375ZM85 26.0781C83.8542 26.0781 82.7734 26.2865 81.7578 26.7031C80.7422 27.1458 79.8438 27.7578 79.0625 28.5391C78.3073 29.2943 77.7083 30.1797 77.2656 31.1953C76.849 32.2109 76.6406 33.2917 76.6406 34.4375C74.7656 34.4375 71.9661 34.4375 68.2422 34.4375C68.2422 31.4427 68.9714 28.6953 70.4297 26.1953C71.862 23.6693 73.776 21.6641 76.1719 20.1797C77.4479 19.3984 78.8411 18.7865 80.3516 18.3438C81.8359 17.901 83.3854 17.6797 85 17.6797C85 19.0859 85 20.4792 85 21.8594C85 23.2656 85 24.6719 85 26.0781ZM93.3984 34.4375C95.2734 34.4375 98.0729 34.4375 101.797 34.4375C101.797 38.1615 101.797 43.7474 101.797 51.1953C99.9219 51.1953 97.1224 51.1953 93.3984 51.1953C93.3984 47.4714 93.3984 41.8854 93.3984 34.4375ZM68.2422 34.4375C70.0911 34.4375 72.8906 34.4375 76.6406 34.4375C76.6406 38.1615 76.6406 43.7474 76.6406 51.1953C74.7656 51.1953 71.9661 51.1953 68.2422 51.1953C68.2422 47.4714 68.2422 41.8854 68.2422 34.4375Z" fill="white"/>
    <path d="M139.727 42.7578C140.872 42.7578 141.953 42.5365 142.969 42.0938C143.984 41.651 144.87 41.0521 145.625 40.2969C146.406 39.5417 147.018 38.6562 147.461 37.6406C147.878 36.625 148.086 35.5312 148.086 34.3594C149.961 34.3594 152.76 34.3594 156.484 34.3594C156.484 36.6771 156.042 38.8516 155.156 40.8828C154.297 42.9401 153.099 44.724 151.562 46.2344C150.052 47.7448 148.281 48.9427 146.25 49.8281C144.219 50.7135 142.044 51.1562 139.727 51.1562C139.727 49.75 139.727 48.3438 139.727 46.9375C139.727 45.5573 139.727 44.1641 139.727 42.7578ZM148.086 34.3594C148.086 33.2135 147.878 32.1328 147.461 31.1172C147.018 30.1016 146.406 29.2031 145.625 28.4219C144.87 27.6667 143.984 27.0677 142.969 26.625C141.953 26.2083 140.872 26 139.727 26C139.727 24.125 139.727 21.3255 139.727 17.6016C141.341 17.6016 142.891 17.8229 144.375 18.2656C145.885 18.7083 147.279 19.3203 148.555 20.1016C150.924 21.5859 152.839 23.5781 154.297 26.0781C155.755 28.6042 156.484 31.3646 156.484 34.3594C155.078 34.3594 153.685 34.3594 152.305 34.3594C150.898 34.3594 149.492 34.3594 148.086 34.3594ZM139.727 51.1562C137.852 51.1562 135.052 51.1562 131.328 51.1562C131.328 49.2812 131.328 46.4818 131.328 42.7578C133.203 42.7578 136.003 42.7578 139.727 42.7578C139.727 44.6328 139.727 47.4323 139.727 51.1562ZM131.328 26C130.182 26 129.102 26.2083 128.086 26.625C127.07 27.0677 126.172 27.6667 125.391 28.4219C124.635 29.2031 124.036 30.1016 123.594 31.1172C123.177 32.1328 122.969 33.2135 122.969 34.3594C121.094 34.3594 118.294 34.3594 114.57 34.3594C114.57 32.0417 115.013 29.8672 115.898 27.8359C116.758 25.8047 117.956 24.0339 119.492 22.5234C121.003 20.987 122.773 19.7891 124.805 18.9297C126.836 18.0443 129.01 17.6016 131.328 17.6016C131.328 18.9818 131.328 20.375 131.328 21.7812C131.328 23.1875 131.328 24.5938 131.328 26ZM122.969 34.3594C122.969 35.5312 123.177 36.625 123.594 37.6406C124.036 38.6562 124.635 39.5417 125.391 40.2969C126.172 41.0521 127.07 41.651 128.086 42.0938C129.102 42.5365 130.182 42.7578 131.328 42.7578C131.328 44.6328 131.328 47.4323 131.328 51.1562C129.714 51.1562 128.164 50.9349 126.68 50.4922C125.169 50.0495 123.776 49.4245 122.5 48.6172C120.104 47.1328 118.19 45.1406 116.758 42.6406C115.299 40.1406 114.57 37.3802 114.57 34.3594C115.977 34.3594 117.37 34.3594 118.75 34.3594C120.156 34.3594 121.562 34.3594 122.969 34.3594ZM131.328 17.6016C133.177 17.6016 135.977 17.6016 139.727 17.6016C139.727 19.4505 139.727 22.25 139.727 26C137.852 26 135.052 26 131.328 26C131.328 24.125 131.328 21.3255 131.328 17.6016Z" fill="white"/>
    <path d="M177.695 34.4375C177.695 35.5833 177.904 36.6771 178.32 37.7188C178.763 38.7344 179.362 39.6198 180.117 40.375C180.898 41.1302 181.797 41.7292 182.812 42.1719C183.828 42.6146 184.909 42.8359 186.055 42.8359C186.055 44.6849 186.055 47.4714 186.055 51.1953C183.737 51.1953 181.562 50.7656 179.531 49.9062C177.5 49.0208 175.729 47.8229 174.219 46.3125C172.682 44.776 171.484 42.9922 170.625 40.9609C169.74 38.9297 169.297 36.7552 169.297 34.4375C170.703 34.4375 172.096 34.4375 173.477 34.4375C174.883 34.4375 176.289 34.4375 177.695 34.4375ZM190.391 42.8359C190.391 44.6849 190.391 47.4714 190.391 51.1953C189.427 51.1953 187.982 51.1953 186.055 51.1953C186.055 49.3464 186.055 46.5599 186.055 42.8359C187.018 42.8359 188.464 42.8359 190.391 42.8359ZM169.297 17.6406C171.146 17.6406 173.945 17.6406 177.695 17.6406C177.695 21.3646 177.695 26.9635 177.695 34.4375C175.82 34.4375 173.021 34.4375 169.297 34.4375C169.297 30.7135 169.297 25.1146 169.297 17.6406Z" fill="white"/>
    <path d="M206.797 51.1953C205.651 50.0495 204.701 48.7995 203.945 47.4453C203.19 46.0651 202.643 44.6458 202.305 43.1875C202.018 41.9115 201.875 40.6484 201.875 39.3984C201.875 37.888 202.07 36.3776 202.461 34.8672C203.216 32.0807 204.661 29.6198 206.797 27.4844C208.099 28.7865 210.065 30.7656 212.695 33.4219C211.888 34.2292 211.276 35.1536 210.859 36.1953C210.469 37.2109 210.273 38.2656 210.273 39.3594C210.273 40.4271 210.469 41.4688 210.859 42.4844C211.276 43.526 211.888 44.4505 212.695 45.2578C211.706 46.2474 210.729 47.237 209.766 48.2266C208.776 49.2161 207.786 50.2057 206.797 51.1953ZM220.586 17.6016C220.612 17.9401 220.625 18.2786 220.625 18.6172C220.625 20.5703 220.273 22.5104 219.57 24.4375C218.763 26.6771 217.474 28.6823 215.703 30.4531C214.375 29.125 212.396 27.1458 209.766 24.5156C210.599 23.7083 211.211 22.7839 211.602 21.7422C212.018 20.7266 212.227 19.6849 212.227 18.6172C212.227 18.4349 212.227 18.2656 212.227 18.1094C212.201 17.9531 212.188 17.7839 212.188 17.6016C213.568 17.6016 214.961 17.6016 216.367 17.6016C217.773 17.6016 219.18 17.6016 220.586 17.6016ZM216.523 51.1953C214.362 51.1953 211.12 51.1953 206.797 51.1953C208.099 49.8672 210.065 47.888 212.695 45.2578C213.581 46.1432 214.336 47.0807 214.961 48.0703C215.612 49.0599 216.133 50.1016 216.523 51.1953Z" fill="white"/>
    <path d="M258.594 34.4375C258.594 33.2917 258.372 32.2109 257.93 31.1953C257.487 30.1797 256.888 29.2943 256.133 28.5391C255.378 27.7578 254.492 27.1458 253.477 26.7031C252.461 26.2865 251.367 26.0781 250.195 26.0781C250.195 24.2031 250.195 21.4036 250.195 17.6797C252.513 17.6797 254.688 18.1224 256.719 19.0078C258.776 19.8672 260.56 21.0651 262.07 22.6016C263.581 24.112 264.779 25.8828 265.664 27.9141C266.549 29.9453 266.992 32.1198 266.992 34.4375C265.586 34.4375 264.18 34.4375 262.773 34.4375C261.393 34.4375 260 34.4375 258.594 34.4375ZM250.195 26.0781C249.049 26.0781 247.969 26.2865 246.953 26.7031C245.938 27.1458 245.039 27.7578 244.258 28.5391C243.503 29.2943 242.904 30.1797 242.461 31.1953C242.044 32.2109 241.836 33.2917 241.836 34.4375C239.961 34.4375 237.161 34.4375 233.438 34.4375C233.438 31.4427 234.167 28.6953 235.625 26.1953C237.057 23.6693 238.971 21.6641 241.367 20.1797C242.643 19.3984 244.036 18.7865 245.547 18.3438C247.031 17.901 248.581 17.6797 250.195 17.6797C250.195 19.0859 250.195 20.4792 250.195 21.8594C250.195 23.2656 250.195 24.6719 250.195 26.0781ZM258.594 34.4375C260.469 34.4375 263.268 34.4375 266.992 34.4375C266.992 38.1615 266.992 43.7474 266.992 51.1953C265.117 51.1953 262.318 51.1953 258.594 51.1953C258.594 47.4714 258.594 41.8854 258.594 34.4375ZM233.438 34.4375C235.286 34.4375 238.086 34.4375 241.836 34.4375C241.836 38.1615 241.836 43.7474 241.836 51.1953C239.961 51.1953 237.161 51.1953 233.438 51.1953C233.438 47.4714 233.438 41.8854 233.438 34.4375Z" fill="white"/>
    <path d="M304.922 42.7578C306.068 42.7578 307.148 42.5365 308.164 42.0938C309.18 41.651 310.065 41.0521 310.82 40.2969C311.602 39.5417 312.214 38.6562 312.656 37.6406C313.073 36.625 313.281 35.5312 313.281 34.3594C315.156 34.3594 317.956 34.3594 321.68 34.3594C321.68 36.6771 321.237 38.8516 320.352 40.8828C319.492 42.9401 318.294 44.724 316.758 46.2344C315.247 47.7448 313.477 48.9427 311.445 49.8281C309.414 50.7135 307.24 51.1562 304.922 51.1562C304.922 49.75 304.922 48.3438 304.922 46.9375C304.922 45.5573 304.922 44.1641 304.922 42.7578ZM313.281 34.3594C313.281 33.2135 313.073 32.1328 312.656 31.1172C312.214 30.1016 311.602 29.2031 310.82 28.4219C310.065 27.6667 309.18 27.0677 308.164 26.625C307.148 26.2083 306.068 26 304.922 26C304.922 24.125 304.922 21.3255 304.922 17.6016C306.536 17.6016 308.086 17.8229 309.57 18.2656C311.081 18.7083 312.474 19.3203 313.75 20.1016C316.12 21.5859 318.034 23.5781 319.492 26.0781C320.951 28.6042 321.68 31.3646 321.68 34.3594C320.273 34.3594 318.88 34.3594 317.5 34.3594C316.094 34.3594 314.688 34.3594 313.281 34.3594ZM304.922 51.1562C303.047 51.1562 300.247 51.1562 296.523 51.1562C296.523 49.2812 296.523 46.4818 296.523 42.7578C298.398 42.7578 301.198 42.7578 304.922 42.7578C304.922 44.6328 304.922 47.4323 304.922 51.1562ZM296.523 26C295.378 26 294.297 26.2083 293.281 26.625C292.266 27.0677 291.367 27.6667 290.586 28.4219C289.831 29.2031 289.232 30.1016 288.789 31.1172C288.372 32.1328 288.164 33.2135 288.164 34.3594C286.289 34.3594 283.49 34.3594 279.766 34.3594C279.766 32.0417 280.208 29.8672 281.094 27.8359C281.953 25.8047 283.151 24.0339 284.688 22.5234C286.198 20.987 287.969 19.7891 290 18.9297C292.031 18.0443 294.206 17.6016 296.523 17.6016C296.523 18.9818 296.523 20.375 296.523 21.7812C296.523 23.1875 296.523 24.5938 296.523 26ZM288.164 34.3594C288.164 35.5312 288.372 36.625 288.789 37.6406C289.232 38.6562 289.831 39.5417 290.586 40.2969C291.367 41.0521 292.266 41.651 293.281 42.0938C294.297 42.5365 295.378 42.7578 296.523 42.7578C296.523 44.6328 296.523 47.4323 296.523 51.1562C294.909 51.1562 293.359 50.9349 291.875 50.4922C290.365 50.0495 288.971 49.4245 287.695 48.6172C285.299 47.1328 283.385 45.1406 281.953 42.6406C280.495 40.1406 279.766 37.3802 279.766 34.3594C281.172 34.3594 282.565 34.3594 283.945 34.3594C285.352 34.3594 286.758 34.3594 288.164 34.3594ZM296.523 17.6016C298.372 17.6016 301.172 17.6016 304.922 17.6016C304.922 19.4505 304.922 22.25 304.922 26C303.047 26 300.247 26 296.523 26C296.523 24.125 296.523 21.3255 296.523 17.6016Z" fill="white"/>
  </symbol>
  <symbol id="heart" width="20" height="19" viewBox="0 0 20 19" fill="none" xmlns="http://www.w3.org/2000/svg" >
    <path d="M17.3545 10.5499L17.3544 10.5498L17.3469 10.5603C16.3501 11.9358 15.1479 13.1359 13.8953 14.2019L13.8783 14.2163L13.862 14.2315C13.2909 14.7631 12.3526 15.5668 11.4755 16.2411C11.0361 16.5789 10.6281 16.8718 10.2985 17.0793C10.1775 17.1555 10.0756 17.2147 9.99273 17.2586C9.90339 17.209 9.78472 17.1326 9.63329 17.0188C9.49595 16.9156 9.35906 16.8034 9.21159 16.6823L9.19943 16.6723C9.06585 16.5627 8.91442 16.4383 8.77069 16.3325C5.99924 14.2253 3.18195 11.7784 1.77422 9.1886C0.62289 6.7273 0.723067 3.91373 2.28408 2.25457C4.42015 0.356961 7.61171 0.750829 9.21302 2.72285L10.0097 3.70397L10.7813 2.703C11.209 2.14823 11.7287 1.71277 12.3484 1.39011C14.971 0.366061 17.5948 1.42925 18.6776 3.69855C19.4392 6.1227 18.79 8.62175 17.3545 10.5499Z" stroke="white" stroke-width="2"/>
  </symbol>
  <symbol id="instagram" width="20" height="20" viewBox="0 0 20 20" fill="none" xmlns="http://www.w3.org/2000/svg" >
    <path d="M9.99731 4.86903C7.15795 4.86903 4.86644 7.16058 4.86644 10C4.86644 12.8394 7.15795 15.131 9.99731 15.131C12.8367 15.131 15.1282 12.8394 15.1282 10C15.1282 7.16058 12.8367 4.86903 9.99731 4.86903ZM9.99731 13.3348C8.16111 13.3348 6.66262 11.8362 6.66262 10C6.66262 8.16376 8.16111 6.66525 9.99731 6.66525C11.8335 6.66525 13.332 8.16376 13.332 10C13.332 11.8362 11.8335 13.3348 9.99731 13.3348ZM15.3383 3.46308C14.6754 3.46308 14.14 3.99845 14.14 4.66139C14.14 5.32434 14.6754 5.8597 15.3383 5.8597C16.0013 5.8597 16.5366 5.32684 16.5366 4.66139C16.5368 4.50397 16.5059 4.34806 16.4458 4.20259C16.3856 4.05711 16.2974 3.92493 16.1861 3.81362C16.0748 3.70231 15.9426 3.61405 15.7971 3.5539C15.6516 3.49375 15.4957 3.46289 15.3383 3.46308ZM19.9989 10C19.9989 8.61907 20.0114 7.25064 19.9338 5.87221C19.8563 4.27113 19.4911 2.85017 18.3203 1.67938C17.147 0.506085 15.7286 0.14334 14.1275 0.065788C12.7466 -0.0117644 11.3782 0.000744113 9.99981 0.000744113C8.61891 0.000744113 7.25051 -0.0117644 5.8721 0.065788C4.27105 0.14334 2.85012 0.508587 1.67935 1.67938C0.506076 2.85267 0.143338 4.27113 0.0657868 5.87221C-0.0117642 7.25314 0.000744099 8.62157 0.000744099 10C0.000744099 11.3784 -0.0117642 12.7494 0.0657868 14.1278C0.143338 15.7289 0.508578 17.1498 1.67935 18.3206C2.85262 19.4939 4.27105 19.8567 5.8721 19.9342C7.25301 20.0118 8.62141 19.9993 9.99981 19.9993C11.3807 19.9993 12.7491 20.0118 14.1275 19.9342C15.7286 19.8567 17.1495 19.4914 18.3203 18.3206C19.4936 17.1473 19.8563 15.7289 19.9338 14.1278C20.0139 12.7494 19.9989 11.3809 19.9989 10ZM17.7974 15.899C17.6148 16.3543 17.3947 16.6945 17.0419 17.0448C16.6892 17.3975 16.3515 17.6176 15.8962 17.8003C14.5803 18.3231 11.4558 18.2055 9.99731 18.2055C8.53885 18.2055 5.4118 18.3231 4.09593 17.8028C3.64064 17.6201 3.30041 17.4 2.95018 17.0473C2.59745 16.6945 2.37731 16.3568 2.19469 15.9015C1.67434 14.5831 1.79192 11.4585 1.79192 10C1.79192 8.54151 1.67434 5.4144 2.19469 4.09851C2.37731 3.6432 2.59745 3.30298 2.95018 2.95274C3.30291 2.6025 3.64064 2.37985 4.09593 2.19723C5.4118 1.67688 8.53885 1.79446 9.99731 1.79446C11.4558 1.79446 14.5828 1.67688 15.8987 2.19723C16.354 2.37985 16.6942 2.6 17.0444 2.95274C17.3972 3.30548 17.6173 3.6432 17.7999 4.09851C18.3203 5.4144 18.2027 8.54151 18.2027 10C18.2027 11.4585 18.3203 14.5831 17.7974 15.899Z" fill="white"/>
  </symbol>
  <symbol id="menu" width="18" height="20" viewBox="0 0 20 18" fill="none" xmlns="http://www.w3.org/2000/svg" >
    <path fill-rule="evenodd" clip-rule="evenodd" d="M0.769231 0C0.565218 0 0.369561 0.0810439 0.225302 0.225303C0.0810437 0.369561 0 0.565218 0 0.769231C0 0.973244 0.0810437 1.1689 0.225302 1.31316C0.369561 1.45742 0.565218 1.53846 0.769231 1.53846H19.2308C19.4348 1.53846 19.6304 1.45742 19.7747 1.31316C19.919 1.1689 20 0.973244 20 0.769231C20 0.565218 19.919 0.369561 19.7747 0.225303C19.6304 0.0810439 19.4348 0 19.2308 0H0.769231ZM0 6.92308C0 6.71906 0.0810437 6.52341 0.225302 6.37915C0.369561 6.23489 0.565218 6.15385 0.769231 6.15385H19.2308C19.4348 6.15385 19.6304 6.23489 19.7747 6.37915C19.919 6.52341 20 6.71906 20 6.92308C20 7.12709 19.919 7.32275 19.7747 7.46701C19.6304 7.61126 19.4348 7.69231 19.2308 7.69231H0.769231C0.565218 7.69231 0.369561 7.61126 0.225302 7.46701C0.0810437 7.32275 0 7.12709 0 6.92308ZM0 13.0769C0 12.8729 0.0810437 12.6773 0.225302 12.533C0.369561 12.3887 0.565218 12.3077 0.769231 12.3077H19.2308C19.4348 12.3077 19.6304 12.3887 19.7747 12.533C19.919 12.6773 20 12.8729 20 13.0769C20 13.2809 19.919 13.4766 19.7747 13.6209C19.6304 13.7651 19.4348 13.8462 19.2308 13.8462H0.769231C0.565218 13.8462 0.369561 13.7651 0.225302 13.6209C0.0810437 13.4766 0 13.2809 0 13.0769Z" fill="white"/>
  </symbol>
  <symbol id="printerist" width="20" height="20" viewBox="0 0 20 20" fill="none" xmlns="http://www.w3.org/2000/svg" >
    <path d="M10 0C4.485 0 0 4.48375 0 10C0 15.5163 4.48375 20 10 20C15.5163 20 20 15.515 20 10C20 4.485 15.515 0 10 0ZM10 18.6637C9.13008 18.664 8.26504 18.5338 7.43375 18.2775C7.785 17.7038 8.31625 16.7575 8.51125 16.0075C8.61625 15.6012 9.05 13.9488 9.05 13.9488C9.33125 14.4875 10.16 14.945 11.0337 14.945C13.6475 14.945 15.53 12.5425 15.53 9.55375C15.53 6.69 13.1938 4.55 10.19 4.55C6.45125 4.55 4.4675 7.06125 4.4675 9.7925C4.4675 11.0625 5.14375 12.6437 6.225 13.1475C6.38875 13.2262 6.475 13.19 6.51375 13.03C6.54125 12.9087 6.69 12.3225 6.75625 12.0463C6.76833 12.003 6.76928 11.9574 6.75901 11.9137C6.74874 11.87 6.72758 11.8296 6.6975 11.7963C6.33875 11.3625 6.0525 10.5612 6.0525 9.82C6.0525 7.91 7.4975 6.05875 9.9625 6.05875C12.0912 6.05875 13.58 7.5075 13.58 9.5825C13.58 11.9262 12.3962 13.5512 10.8575 13.5512C10.0062 13.5512 9.36875 12.8475 9.57625 11.985C9.8225 10.9538 10.295 9.84375 10.295 9.1025C10.295 8.43875 9.94 7.88375 9.1975 7.88375C8.32625 7.88375 7.63125 8.7825 7.63125 9.98875C7.63125 10.7537 7.88875 11.2738 7.88875 11.2738C7.88875 11.2738 7.02875 14.9025 6.8725 15.5788C6.69625 16.3288 6.7675 17.38 6.84125 18.0638C5.21828 17.4305 3.82425 16.3221 2.84159 14.8836C1.85892 13.445 1.33339 11.7434 1.33375 10.0013C1.334 8.28808 1.84222 6.61344 2.79417 5.18909C3.74611 3.76474 5.09902 2.65464 6.68183 1.99915C8.26465 1.34367 10.0063 1.17222 11.6865 1.50651C13.3668 1.84079 14.9102 2.66579 16.1216 3.87719C17.333 5.08858 18.158 6.63198 18.4922 8.31222C18.8265 9.99247 18.6551 11.7341 17.9996 13.3169C17.3441 14.8997 16.234 16.2526 14.8097 17.2046C13.3853 18.1565 11.7107 18.6648 9.9975 18.665L10 18.6637Z" fill="white"/>
  </symbol>
  <symbol id="profile" width="18" height="18" viewBox="0 0 18 20" fill="none" xmlns="http://www.w3.org/2000/svg" >
    <path d="M3.534 10.07C3.65695 10.0175 3.78916 9.99026 3.92283 9.98978C4.0565 9.9893 4.18891 10.0156 4.31223 10.0672C4.43555 10.1188 4.54728 10.1945 4.64082 10.29C4.73436 10.3855 4.8078 10.4988 4.85681 10.6231C4.90582 10.7475 4.9294 10.8804 4.92615 11.014C4.92291 11.1477 4.89291 11.2793 4.83792 11.4011C4.78293 11.523 4.70408 11.6325 4.60602 11.7234C4.50796 11.8142 4.39268 11.8845 4.267 11.93C3.59854 12.1934 3.02483 12.6519 2.6205 13.2458C2.21618 13.8397 1.99997 14.5415 2 15.26V17C2 17.2652 2.10536 17.5196 2.29289 17.7071C2.48043 17.8946 2.73478 18 3 18H11C11.2652 18 11.5196 17.8946 11.7071 17.7071C11.8946 17.5196 12 17.2652 12 17V15.353C12.0001 14.6115 11.7749 13.8874 11.3541 13.2768C10.9334 12.6662 10.337 12.1979 9.644 11.934C9.51754 11.8901 9.40118 11.8213 9.30181 11.7316C9.20244 11.6419 9.12209 11.5332 9.06553 11.4119C9.00896 11.2905 8.97732 11.1591 8.97249 11.0253C8.96766 10.8916 8.98974 10.7582 9.03742 10.6331C9.08509 10.508 9.1574 10.3938 9.25004 10.2972C9.34268 10.2006 9.45378 10.1235 9.57675 10.0706C9.69971 10.0177 9.83205 9.99008 9.9659 9.98929C10.0998 9.98849 10.2324 10.0146 10.356 10.066C11.4276 10.4742 12.3499 11.1983 13.0006 12.1425C13.6514 13.0867 13.9999 14.2063 14 15.353V17C14 17.7956 13.6839 18.5587 13.1213 19.1213C12.5587 19.6839 11.7956 20 11 20H3C2.20435 20 1.44129 19.6839 0.87868 19.1213C0.316071 18.5587 0 17.7956 0 17V15.26C0.000137601 14.1402 0.337277 13.0463 0.967561 12.1206C1.59785 11.195 2.4921 10.4805 3.534 10.07ZM7 0C8.06087 0 9.07828 0.421427 9.82843 1.17157C10.5786 1.92172 11 2.93913 11 4V6C11 7.06087 10.5786 8.07828 9.82843 8.82843C9.07828 9.57857 8.06087 10 7 10C5.93913 10 4.92172 9.57857 4.17157 8.82843C3.42143 8.07828 3 7.06087 3 6V4C3 2.93913 3.42143 1.92172 4.17157 1.17157C4.92172 0.421427 5.93913 0 7 0ZM7 2C6.46957 2 5.96086 2.21071 5.58579 2.58579C5.21071 2.96086 5 3.46957 5 4V6C5 6.53043 5.21071 7.03914 5.58579 7.41421C5.96086 7.78929 6.46957 8 7 8C7.53043 8 8.03914 7.78929 8.41421 7.41421C8.78929 7.03914 9 6.53043 9 6V4C9 3.46957 8.78929 2.96086 8.41421 2.58579C8.03914 2.21071 7.53043 2 7 2Z" fill="white"/>
  </symbol>
  <symbol id="search" width="19" height="19" viewBox="0 0 19 19" fill="none" xmlns="http://www.w3.org/2000/svg" >
    <path d="M17.71 16.29L14.31 12.9C15.407 11.5025 16.0022 9.77666 16 8C16 6.41775 15.5308 4.87103 14.6518 3.55544C13.7727 2.23985 12.5233 1.21447 11.0615 0.608967C9.59966 0.00346625 7.99113 -0.15496 6.43928 0.153721C4.88743 0.462403 3.46197 1.22433 2.34315 2.34315C1.22433 3.46197 0.462403 4.88743 0.153721 6.43928C-0.15496 7.99113 0.00346625 9.59966 0.608967 11.0615C1.21447 12.5233 2.23985 13.7727 3.55544 14.6518C4.87103 15.5308 6.41775 16 8 16C9.77666 16.0022 11.5025 15.407 12.9 14.31L16.29 17.71C16.383 17.8037 16.4936 17.8781 16.6154 17.9289C16.7373 17.9797 16.868 18.0058 17 18.0058C17.132 18.0058 17.2627 17.9797 17.3846 17.9289C17.5064 17.8781 17.617 17.8037 17.71 17.71C17.8037 17.617 17.8781 17.5064 17.9289 17.3846C17.9797 17.2627 18.0058 17.132 18.0058 17C18.0058 16.868 17.9797 16.7373 17.9289 16.6154C17.8781 16.4936 17.8037 16.383 17.71 16.29ZM2 8C2 6.81332 2.3519 5.65328 3.01119 4.66658C3.67047 3.67989 4.60755 2.91085 5.7039 2.45673C6.80026 2.0026 8.00666 1.88378 9.17055 2.11529C10.3344 2.3468 11.4035 2.91825 12.2426 3.75736C13.0818 4.59648 13.6532 5.66558 13.8847 6.82946C14.1162 7.99335 13.9974 9.19975 13.5433 10.2961C13.0892 11.3925 12.3201 12.3295 11.3334 12.9888C10.3467 13.6481 9.18669 14 8 14C6.4087 14 4.88258 13.3679 3.75736 12.2426C2.63214 11.1174 2 9.5913 2 8Z" fill="white"/>
  </symbol>
  <symbol id="o" width="727" height="344" viewBox="0 0 727 344" fill="none" xmlns="http://www.w3.org/2000/svg" >
    <path d="M391.341 171.641C414.258 171.641 435.872 167.117 456.185 158.069C476.497 149.022 494.205 136.781 509.309 121.346C524.934 105.912 537.174 87.8164 546.028 67.0598C554.361 46.3032 558.528 23.9499 558.528 0C596.028 0 652.018 0 726.497 0C726.497 47.3676 717.643 91.808 699.934 133.321C682.747 175.367 658.789 211.824 628.059 242.692C597.851 273.561 562.434 298.043 521.809 316.139C481.184 334.234 437.695 343.282 391.341 343.282C391.341 314.542 391.341 285.802 391.341 257.062C391.341 228.855 391.341 200.381 391.341 171.641ZM391.341 343.282C353.841 343.282 297.852 343.282 223.372 343.282C223.372 304.962 223.372 247.749 223.372 171.641C260.872 171.641 316.862 171.641 391.341 171.641C391.341 209.961 391.341 267.175 391.341 343.282ZM43.216 68.4648H69.216C78.0702 89.2214 89.5181 105.912 104.622 121.346C120.247 136.781 138.216 149.022 158.529 158.069C178.841 167.117 200.456 171.641 223.372 171.641C223.372 209.961 223.372 267.175 223.372 343.282C191.081 343.282 160.091 338.758 130.404 329.711C100.195 320.663 72.3306 307.889 46.8097 291.391C-1.10694 261.054 -2.31953 259.042 1.216 259.042C1.216 259.042 1.21599 254.87 1.21599 193.132L1.21602 68.4648C1.21602 68.4648 15.091 68.4648 43.216 68.4648Z" fill="white" fill-opacity="0.1"/>
  </symbol>
</svg>
