<svg width="530" height="656" viewBox="0 0 530 656" fill="none" xmlns="http://www.w3.org/2000/svg">
<path d="M0.216553 83.5764C61.9557 83.5764 155.434 83.5764 280.651 83.5764C280.651 161.785 307.608 228.885 361.521 284.875C416.304 340.866 454.325 368.861 531.717 368.861C531.717 432.85 531.717 528.39 531.717 655.479C454.325 655.479 409.782 640.371 341.956 610.154C274.13 580.825 214.999 539.943 164.564 487.508C113.26 435.961 73.26 375.527 44.5644 306.205C14.9992 235.995 0.216553 161.785 0.216553 83.5764ZM280.651 83.5764C218.043 83.5764 124.564 83.5764 0.216553 83.5764C0.216553 83.5764 0.216553 508.823 0.216553 0.464844C61.9557 0.464844 155.434 0.464844 280.651 0.464844C280.651 254.644 280.651 83.5764 280.651 83.5764Z" fill="white" fill-opacity="0.1"/>
</svg>
