<svg width="18" height="13" viewBox="0 0 18 13" fill="none" xmlns="http://www.w3.org/2000/svg">
<path d="M6.14545 10.405L2.66165 6.90496C2.57056 6.81232 2.46206 6.73877 2.34246 6.68857C2.22285 6.63837 2.09452 6.61252 1.9649 6.61252C1.83527 6.61252 1.70694 6.63837 1.58734 6.68857C1.46773 6.73877 1.35924 6.81232 1.26814 6.90496C1.17593 6.99649 1.10271 7.10549 1.05275 7.22565C1.00278 7.34581 0.977051 7.47474 0.977051 7.60496C0.977051 7.73519 1.00278 7.86412 1.05275 7.98428C1.10271 8.10444 1.17593 8.21344 1.26814 8.30496L5.43874 12.495C5.82693 12.885 6.45402 12.885 6.84221 12.495L17.3931 1.90496C17.4853 1.81344 17.5586 1.70444 17.6085 1.58428C17.6585 1.46412 17.6842 1.33519 17.6842 1.20496C17.6842 1.07474 17.6585 0.945809 17.6085 0.825648C17.5586 0.705488 17.4853 0.596487 17.3931 0.504964C17.302 0.412324 17.1935 0.338772 17.0739 0.288573C16.9543 0.238373 16.826 0.212524 16.6964 0.212524C16.5668 0.212524 16.4384 0.238373 16.3188 0.288573C16.1992 0.338772 16.0907 0.412324 15.9996 0.504964L6.14545 10.405Z" fill="#191919"/>
</svg>
