<svg width="7" height="14" viewBox="0 0 7 14" fill="none" xmlns="http://www.w3.org/2000/svg">
<path d="M1.16669 13.4168C0.952512 13.4172 0.744945 13.3426 0.580026 13.2059C0.487206 13.129 0.410479 13.0345 0.35424 12.9278C0.298001 12.8212 0.263354 12.7045 0.252285 12.5844C0.241215 12.4644 0.25394 12.3433 0.289731 12.2282C0.325522 12.113 0.383674 12.0061 0.460859 11.9134L4.56753 7.00011L0.607527 2.07761C0.531383 1.98384 0.47452 1.87596 0.440208 1.76015C0.405896 1.64433 0.39481 1.52288 0.407587 1.40277C0.420365 1.28266 0.456754 1.16627 0.514663 1.06026C0.572572 0.954265 0.65086 0.860754 0.745026 0.785108C0.83987 0.701658 0.950939 0.638713 1.07126 0.600223C1.19159 0.561733 1.31857 0.54853 1.44424 0.561441C1.5699 0.574352 1.69155 0.613099 1.80153 0.675251C1.91152 0.737402 2.00746 0.821617 2.08336 0.922608L6.51086 6.42261C6.64568 6.58663 6.71939 6.79237 6.71939 7.00469C6.71939 7.21701 6.64568 7.42275 6.51086 7.58677L1.92753 13.0868C1.83557 13.1977 1.71875 13.2854 1.58656 13.3427C1.45437 13.4001 1.31052 13.4254 1.16669 13.4168Z" fill="#858585"/>
</svg>
