<svg width="16" height="9" viewBox="0 0 16 9" fill="none" xmlns="http://www.w3.org/2000/svg">
<path d="M7.98905 7.99954C7.75539 8 7.52896 7.91862 7.34904 7.76954L1.34905 2.76954C1.14483 2.59981 1.0164 2.35589 0.992024 2.09147C0.967645 1.82704 1.04931 1.56376 1.21905 1.35954C1.38878 1.15533 1.6327 1.0269 1.89712 1.00252C2.16155 0.978143 2.42483 1.0598 2.62905 1.22954L7.98905 5.70954L13.349 1.38954C13.4513 1.30648 13.569 1.24445 13.6954 1.20701C13.8217 1.16958 13.9542 1.15749 14.0852 1.17143C14.2163 1.18537 14.3432 1.22506 14.4589 1.28824C14.5745 1.35141 14.6765 1.43682 14.759 1.53954C14.8506 1.64236 14.92 1.76299 14.9628 1.89386C15.0056 2.02474 15.0209 2.16304 15.0077 2.3001C14.9946 2.43717 14.9533 2.57004 14.8864 2.69039C14.8195 2.81075 14.7285 2.916 14.619 2.99954L8.61905 7.82954C8.43396 7.95506 8.21215 8.01491 7.98905 7.99954Z" fill="white"/>
</svg>
