<svg width="20" height="19" viewBox="0 0 20 19" fill="none" xmlns="http://www.w3.org/2000/svg">
<path d="M17.3545 10.5499L17.3544 10.5498L17.3469 10.5603C16.3501 11.9358 15.1479 13.1359 13.8953 14.2019L13.8783 14.2163L13.862 14.2315C13.2909 14.7631 12.3526 15.5668 11.4755 16.2411C11.0361 16.5789 10.6281 16.8718 10.2985 17.0793C10.1775 17.1555 10.0756 17.2147 9.99273 17.2586C9.90339 17.209 9.78472 17.1326 9.63329 17.0188C9.49595 16.9156 9.35906 16.8034 9.21159 16.6823L9.19943 16.6723C9.06585 16.5627 8.91442 16.4383 8.77069 16.3325C5.99924 14.2253 3.18195 11.7784 1.77422 9.1886C0.62289 6.7273 0.723067 3.91373 2.28408 2.25457C4.42015 0.356961 7.61171 0.750829 9.21302 2.72285L10.0097 3.70397L10.7813 2.703C11.209 2.14823 11.7287 1.71277 12.3484 1.39011C14.971 0.366061 17.5948 1.42925 18.6776 3.69855C19.4392 6.1227 18.79 8.62175 17.3545 10.5499Z" stroke="white" stroke-width="2"/>
</svg>
