<svg width="20" height="14" viewBox="0 0 20 14" fill="none" xmlns="http://www.w3.org/2000/svg">
<path fill-rule="evenodd" clip-rule="evenodd" d="M0.769231 0C0.565218 0 0.369561 0.0810439 0.225302 0.225303C0.0810437 0.369561 0 0.565218 0 0.769231C0 0.973244 0.0810437 1.1689 0.225302 1.31316C0.369561 1.45742 0.565218 1.53846 0.769231 1.53846H19.2308C19.4348 1.53846 19.6304 1.45742 19.7747 1.31316C19.919 1.1689 20 0.973244 20 0.769231C20 0.565218 19.919 0.369561 19.7747 0.225303C19.6304 0.0810439 19.4348 0 19.2308 0H0.769231ZM0 6.92308C0 6.71906 0.0810437 6.52341 0.225302 6.37915C0.369561 6.23489 0.565218 6.15385 0.769231 6.15385H19.2308C19.4348 6.15385 19.6304 6.23489 19.7747 6.37915C19.919 6.52341 20 6.71906 20 6.92308C20 7.12709 19.919 7.32275 19.7747 7.46701C19.6304 7.61126 19.4348 7.69231 19.2308 7.69231H0.769231C0.565218 7.69231 0.369561 7.61126 0.225302 7.46701C0.0810437 7.32275 0 7.12709 0 6.92308ZM0 13.0769C0 12.8729 0.0810437 12.6773 0.225302 12.533C0.369561 12.3887 0.565218 12.3077 0.769231 12.3077H19.2308C19.4348 12.3077 19.6304 12.3887 19.7747 12.533C19.919 12.6773 20 12.8729 20 13.0769C20 13.2809 19.919 13.4766 19.7747 13.6209C19.6304 13.7651 19.4348 13.8462 19.2308 13.8462H0.769231C0.565218 13.8462 0.369561 13.7651 0.225302 13.6209C0.0810437 13.4766 0 13.2809 0 13.0769Z" fill="white"/>
</svg>
