<svg width="1920" height="3809" viewBox="0 0 1920 3809" fill="none" xmlns="http://www.w3.org/2000/svg">
<path d="M-79.2375 492.369C-41.4777 492.369 -5.86334 499.258 27.6056 513.036C61.0745 526.813 90.6817 545.454 116.427 568.957C141.314 592.46 161.052 620.015 175.641 651.622C189.372 683.23 196.238 717.268 196.238 753.739C258.026 753.739 350.281 753.739 473 753.739C473 702.68 465.705 654.054 451.116 607.858C436.527 561.663 416.36 518.709 390.615 478.997C341.699 404.436 275.619 344.463 192.376 299.078C109.991 253.693 19.4529 231 -79.2375 231C-79.2375 272.333 -79.2375 314.071 -79.2375 356.214C-79.2375 397.547 -79.2375 438.475 -79.2375 478.997C-79.2375 481.428 -79.2375 483.86 -79.2375 486.291C-79.2375 488.722 -79.2375 490.748 -79.2375 492.369ZM473 750.092C412.069 750.092 319.815 750.092 196.238 750.092C196.238 983.5 196.238 1332.8 196.238 1798C258.026 1798 363.102 1798 472.197 1847.4C472.197 1614.8 473 1216.1 473 750.092ZM196.238 883.815C135.307 883.815 43.4819 883.815 -79.2375 883.815C-79.2375 942.168 -79.2375 1029.29 -79.2375 1145.18C-18.3069 1145.18 73.5181 1145.18 196.238 1145.18C196.238 1086.83 196.238 999.709 196.238 883.815ZM-79.2375 231C-141.026 231 -233.281 231 -356 231C-356 289.352 -356 376.475 -356 492.369C-294.211 492.369 -201.957 492.369 -79.2375 492.369C-79.2375 434.828 -79.2375 347.704 -79.2375 231Z" fill="#A9A8A8" fill-opacity="0.3"/>
<path d="M1389.99 1198C1349.71 1157.14 1316.31 1112.56 1289.76 1064.27C1263.22 1015.05 1244 964.436 1232.1 912.43C1222.03 866.925 1217 821.884 1217 777.307C1217 723.443 1223.86 669.58 1237.59 615.716C1264.14 516.347 1314.93 428.587 1389.99 352.435C1435.75 398.869 1504.85 469.449 1597.3 564.174C1568.92 592.964 1547.41 625.932 1532.77 663.079C1519.04 699.298 1512.18 736.909 1512.18 775.914C1512.18 813.99 1519.04 851.137 1532.77 887.356C1547.41 924.503 1568.92 957.471 1597.3 986.26C1562.52 1021.55 1528.19 1056.84 1494.33 1092.13C1459.55 1127.42 1424.77 1162.71 1389.99 1198ZM1874.63 0C1875.54 12.0729 1876 24.1457 1876 36.2186C1876 105.87 1863.64 175.057 1838.93 243.779C1810.56 323.646 1765.25 395.154 1703.01 458.305C1656.33 410.942 1586.77 340.362 1494.33 246.565C1523.62 217.776 1545.13 184.808 1558.86 147.66C1573.5 111.442 1580.82 74.2946 1580.82 36.2186C1580.82 29.7178 1580.82 23.6814 1580.82 18.1093C1579.91 12.5372 1579.45 6.50077 1579.45 0C1627.96 0 1676.93 0 1726.35 0C1775.78 0 1825.2 0 1874.63 0ZM1731.84 1198C1655.88 1198 1541.92 1198 1389.99 1198C1435.75 1150.64 1504.85 1080.06 1597.3 986.26C1628.42 1017.84 1654.96 1051.27 1676.93 1086.56C1699.81 1121.85 1718.11 1159 1731.84 1198Z" fill="#A9A8A8" fill-opacity="0.3"/>
<path d="M433.825 3948C471.347 3910.48 502.474 3869.55 527.204 3825.21C551.935 3780.02 569.843 3733.54 580.929 3685.79C590.31 3644.01 595 3602.65 595 3561.72C595 3512.26 588.604 3462.81 575.812 3413.35C551.082 3322.11 503.753 3241.53 433.825 3171.6C391.186 3214.24 326.801 3279.05 240.671 3366.02C267.107 3392.46 287.147 3422.73 300.792 3456.84C313.583 3490.09 319.979 3524.63 319.979 3560.44C319.979 3595.4 313.583 3629.51 300.792 3662.77C287.147 3696.88 267.107 3727.15 240.671 3753.58C273.076 3785.98 305.056 3818.39 336.608 3850.79C369.014 3883.19 401.419 3915.6 433.825 3948ZM-17.7208 2848C-18.5736 2859.09 -19 2870.17 -19 2881.26C-19 2945.21 -7.48749 3008.74 15.5375 3071.84C41.9736 3145.17 84.1861 3210.83 142.175 3268.81C185.667 3225.33 250.478 3160.52 336.608 3074.4C309.319 3047.96 289.279 3017.69 276.488 2983.58C262.843 2950.33 256.021 2916.22 256.021 2881.26C256.021 2875.29 256.021 2869.74 256.021 2864.63C256.874 2859.51 257.3 2853.97 257.3 2848C212.103 2848 166.479 2848 120.429 2848C74.3792 2848 28.3292 2848 -17.7208 2848ZM115.313 3948C186.093 3948 292.264 3948 433.825 3948C391.186 3904.51 326.801 3839.71 240.671 3753.58C211.676 3782.57 186.946 3813.27 166.479 3845.67C145.16 3878.08 128.104 3912.19 115.313 3948Z" fill="#A9A8A8" fill-opacity="0.3"/>
<path d="M242 2585.19C277.897 2585.19 311.755 2578.27 343.573 2564.41C375.392 2550.56 403.131 2531.82 426.79 2508.19C451.266 2484.55 470.438 2456.85 484.308 2425.07C497.361 2393.29 503.888 2359.06 503.888 2322.39C562.629 2322.39 650.333 2322.39 767 2322.39C767 2394.92 753.131 2462.96 725.392 2526.52C698.468 2590.9 660.939 2646.72 612.804 2693.98C565.485 2741.25 510.007 2778.73 446.371 2806.44C382.734 2834.15 314.611 2848 242 2848C242 2804 242 2759.99 242 2715.99C242 2672.8 242 2629.2 242 2585.19ZM503.888 2322.39C503.888 2286.53 497.361 2252.71 484.308 2220.93C470.438 2189.15 451.266 2161.04 426.79 2136.59C403.131 2112.96 375.392 2094.22 343.573 2080.36C311.755 2067.32 277.897 2060.81 242 2060.81C242 2002.13 242 1914.53 242 1798C335.823 1798 421.895 1820.82 500.217 1866.45C579.354 1911.27 642.175 1971.17 688.678 2046.14C713.154 2086.07 732.326 2129.66 746.196 2176.93C760.065 2223.38 767 2271.86 767 2322.39C722.944 2322.39 679.296 2322.39 636.056 2322.39C592 2322.39 547.944 2322.39 503.888 2322.39ZM242 2585.19C242 2643.87 242 2731.47 242 2848C125.333 2848 -49.6667 2848 -283 2848C-283 2789.33 -283 2701.73 -283 2585.19C-166.333 2585.19 8.66665 2585.19 242 2585.19ZM242 1798C242 1855.86 242 1943.46 242 2060.81C125.333 2060.81 -49.6667 2060.81 -283 2060.81C-283 2002.13 -283 1914.53 -283 1798C-166.333 1798 8.66669 1798 242 1798Z" fill="#A9A8A8" fill-opacity="0.3"/>
<path d="M1499 3541.55C1463.58 3541.55 1430.17 3548.39 1398.78 3562.07C1367.39 3575.76 1340.02 3594.27 1316.67 3617.61C1292.52 3640.95 1273.61 3668.31 1259.92 3699.7C1247.04 3731.09 1240.6 3764.89 1240.6 3801.1C1182.65 3801.1 1096.11 3801.1 980.999 3801.1C980.999 3729.48 994.684 3662.27 1022.05 3599.5C1048.62 3535.92 1085.65 3480.79 1133.14 3434.11C1179.83 3387.43 1234.57 3350.41 1297.35 3323.05C1360.14 3295.68 1427.36 3282 1499 3282C1499 3325.46 1499 3368.92 1499 3412.38C1499 3455.03 1499 3498.09 1499 3541.55ZM1240.6 3801.1C1240.6 3836.52 1247.04 3869.92 1259.92 3901.3C1273.61 3932.69 1292.52 3960.46 1316.67 3984.6C1340.02 4007.94 1367.39 4026.45 1398.78 4040.13C1430.17 4053.01 1463.58 4059.45 1499 4059.45C1499 4117.39 1499 4203.91 1499 4319C1406.43 4319 1321.5 4296.47 1244.23 4251.4C1166.14 4207.13 1104.16 4147.98 1058.28 4073.93C1034.13 4034.5 1015.21 3991.44 1001.53 3944.76C987.842 3898.89 980.999 3851 980.999 3801.1C1024.47 3801.1 1067.53 3801.1 1110.2 3801.1C1153.67 3801.1 1197.13 3801.1 1240.6 3801.1ZM1499 3541.55C1499 3483.61 1499 3397.09 1499 3282C1614.11 3282 1786.78 3282 2017 3282C2017 3339.95 2017 3426.46 2017 3541.55C1901.89 3541.55 1729.22 3541.55 1499 3541.55ZM1499 4319C1499 4261.86 1499 4175.34 1499 4059.45C1614.11 4059.45 1786.78 4059.45 2017 4059.45C2017 4117.39 2017 4203.91 2017 4319C1901.89 4319 1729.22 4319 1499 4319Z" fill="#A9A8A8" fill-opacity="0.3"/>
<path d="M1650.23 2300C1650.23 2341.91 1658.6 2381.92 1675.33 2420.03C1693.1 2457.18 1717.15 2489.57 1747.48 2517.19C1778.85 2544.82 1814.93 2566.73 1855.71 2582.92C1896.49 2599.12 1939.88 2607.21 1985.89 2607.21C1985.89 2674.85 1985.89 2776.78 1985.89 2913C1892.83 2913 1805.51 2897.28 1723.95 2865.85C1642.39 2833.46 1571.28 2789.64 1510.63 2734.39C1448.94 2678.18 1400.84 2612.93 1366.33 2538.63C1330.78 2464.32 1313.5 2373.28 1313.5 2288.5C1369.5 2300 1425.41 2300 1480.83 2300C1537.3 2300 1593.76 2300 1650.23 2300ZM2160 2607.21C2160 2674.85 2160 2776.78 2160 2913C2121.31 2913 2063.27 2913 1985.89 2913C1985.89 2845.37 1985.89 2743.44 1985.89 2607.21C2024.58 2607.21 2082.62 2607.21 2160 2607.21Z" fill="#A9A8A8" fill-opacity="0.3"/>
<path d="M1702.86 2024.18C1740.47 2024.18 1775.95 2016.91 1809.29 2002.37C1842.64 1987.83 1871.7 1968.16 1896.5 1943.36C1922.14 1918.55 1942.23 1889.48 1956.77 1856.12C1970.45 1822.77 1977.29 1786.85 1977.29 1748.36C2038.84 1748.36 2130.75 1748.36 2253 1748.36C2253 1824.48 2238.47 1895.89 2209.4 1962.6C2181.19 2030.17 2141.86 2088.75 2091.42 2138.36C2041.83 2187.96 1983.7 2227.3 1917.01 2256.38C1850.33 2285.46 1778.94 2300 1702.86 2300C1702.86 2253.82 1702.86 2207.63 1702.86 2161.45C1702.86 2116.12 1702.86 2070.36 1702.86 2024.18ZM1977.29 1748.36C1977.29 1710.73 1970.45 1675.23 1956.77 1641.88C1942.23 1608.52 1922.14 1579.02 1896.5 1553.36C1871.7 1528.56 1842.64 1508.89 1809.29 1494.35C1775.95 1480.66 1740.47 1473.82 1702.86 1473.82C1702.86 1412.24 1702.86 1320.3 1702.86 1198C1755.86 1198 1806.73 1205.27 1855.46 1219.81C1905.05 1234.35 1950.78 1254.45 1992.68 1280.1C2070.47 1328.85 2133.31 1394.28 2181.19 1476.39C2229.06 1559.35 2253 1650 2253 1748.36C2206.83 1748.36 2161.1 1748.36 2115.78 1748.36C2069.62 1748.36 2023.45 1748.36 1977.29 1748.36ZM1702.86 2300C1641.3 2300 1549.4 2300 1427.14 2300C1427.14 2238.42 1427.14 2146.48 1427.14 2024.18C1488.7 2024.18 1580.6 2024.18 1702.86 2024.18C1702.86 2085.76 1702.86 2177.7 1702.86 2300ZM1427.14 1473.82C1389.53 1473.82 1354.05 1480.66 1320.71 1494.35C1287.36 1508.89 1257.87 1528.56 1232.22 1553.36C1207.43 1579.02 1187.76 1608.52 1173.23 1641.88C1159.55 1675.23 1152.71 1710.73 1152.71 1748.36C1091.16 1748.36 999.254 1748.36 877 1748.36C877 1672.24 891.533 1600.83 920.601 1534.12C948.813 1467.41 988.14 1409.25 1038.58 1359.64C1088.17 1309.18 1146.3 1269.84 1212.98 1241.62C1279.67 1212.54 1351.05 1198 1427.14 1198C1427.14 1243.33 1427.14 1289.08 1427.14 1335.27C1427.14 1381.45 1427.14 1427.64 1427.14 1473.82ZM1152.71 1748.36C1152.71 1786.85 1159.55 1822.77 1173.23 1856.12C1187.76 1889.48 1207.43 1918.55 1232.22 1943.36C1257.87 1968.16 1287.36 1987.83 1320.71 2002.37C1354.05 2016.91 1389.53 2024.18 1427.14 2024.18C1427.14 2085.76 1427.14 2177.7 1427.14 2300C1374.14 2300 1323.27 2292.73 1274.54 2278.19C1224.95 2263.65 1179.22 2243.13 1137.32 2216.61C1058.67 2167.86 995.834 2102.44 948.813 2020.33C900.937 1938.23 877 1847.57 877 1748.36C923.165 1748.36 968.904 1748.36 1014.21 1748.36C1060.38 1748.36 1106.55 1748.36 1152.71 1748.36ZM1427.14 1198C1487.84 1198 1579.75 1198 1702.86 1198C1702.86 1258.72 1702.86 1350.66 1702.86 1473.82C1641.3 1473.82 1549.4 1473.82 1427.14 1473.82C1427.14 1412.24 1427.14 1320.3 1427.14 1198Z" fill="#A9A8A8" fill-opacity="0.3"/>
</svg>
